<svg xmlns="http://www.w3.org/2000/svg" xmlns:xlink="http://www.w3.org/1999/xlink"><symbol id="icon-calendar"><path d="M19.25 2.025h-2.844V.648c0-.38-.294-.69-.656-.69-.363 0-.656.31-.656.69v1.377h-3.938V.648c0-.38-.294-.69-.655-.69-.362 0-.656.31-.656.69v1.377H5.906V.648c0-.38-.294-.69-.656-.69-.363 0-.657.31-.657.69v1.377H1.75C.784 2.025 0 2.847 0 3.862v16.302C0 21.18.784 22 1.75 22h17.5c.967 0 1.75-.82 1.75-1.836V3.862c0-1.015-.783-1.837-1.75-1.837zm.438 18.14a.448.448 0 01-.437.458H1.75a.45.45 0 01-.438-.46v-16.3a.45.45 0 01.438-.46h2.844V4.78c0 .382.294.69.657.69.363 0 .657-.308.657-.69V3.404h3.938V4.78c0 .382.294.69.657.69.36 0 .655-.308.655-.69V3.404h3.938V4.78c0 .382.293.69.656.69.363 0 .657-.308.657-.69V3.404h2.845a.45.45 0 01.437.46v16.3z"/><path d="M4.594 8.225H7.22v2.066H4.593zm0 3.443H7.22v2.067H4.593zm0 3.444H7.22v2.066H4.593zm4.594 0h2.625v2.066H9.188zm0-3.444h2.625v2.067H9.188zm0-3.443h2.625v2.066H9.188zm4.592 6.887h2.626v2.066H13.78zm0-3.444h2.626v2.067H13.78zm0-3.443h2.626v2.066H13.78z"/></symbol><symbol id="icon-like" viewBox="0 0 22 20"><path d="M12.4 3.6l-.6 2.9-.6 2.5h8.7v2.1L17 18H8V8l4.4-4.4M2 10v8-8M13.2 0L6.6 6.6c-.4.3-.6.8-.6 1.4v10c0 1.1.9 2 2 2h9c.8 0 1.5-.5 1.8-1.2l3-7.1c.1-.2.1-.5.1-.7V9h.1c0-1.1-.9-2-2-2h-6.3l1-4.6v-.3c0-.4-.2-.8-.4-1.1l-1.1-1zM4 8H0v12h4V8zm18 1z" fill="#fff"/></symbol><symbol id="icon-mail"><path d="M8 10c-.266 0-.5-.094-1-.336L0 6v7c0 .55.45 1 1 1h14c.55 0 1-.45 1-1V6L9 9.664c-.5.242-.734.336-1 .336zm7-8H1c-.55 0-1 .45-1 1v.758l8 4.205 8-4.205V3c0-.55-.45-1-1-1z"/></symbol><symbol id="icon-phone"><path fill="#010101" d="M3.6 7.8c1.4 2.8 3.8 5.1 6.6 6.6l2.2-2.2c.3-.3.699-.4 1-.2 1.1.4 2.3.6 3.6.6.6 0 1 .4 1 1V17c0 .6-.4 1-1 1C7.6 18 0 10.4 0 1c0-.6.4-1 1-1h3.5c.6 0 1 .4 1 1 0 1.2.2 2.4.6 3.6.1.3 0 .7-.2 1L3.6 7.8z"/></symbol></svg>